# xmcd
#
# Track frame offsets:
#	150
#	16143
#	36790
#	60433
#	108760
#	131699
#	153725
#	176323
#	197931
#
# Disc length: 2919 seconds
#
# Revision: 1
# Processed by: cddbd v1.5.2PL0 Copyright (c) Steve Scherf et al.
# Submitted via: audiograbber 1.83.01
#
DISCID=6d0b6509
DTITLE=Mr Bluez - Time for a Change
DYEAR=1900
DGENRE=
TTITLE0=Match Box
TTITLE1=Why Get Up
TTITLE2=Monday Blues
TTITLE3=Swallow My Pride
TTITLE4=Time for a Change
TTITLE5=Cold Feet
TTITLE6=Don't Make a Fool
TTITLE7=Never Let You Go
TTITLE8=Midnight Train
EXTD=
EXTT0=
EXTT1=
EXTT2=
EXTT3=
EXTT4=
EXTT5=
EXTT6=
EXTT7=
EXTT8=
PLAYORDER=
